# xmcd
#
# Track frame offsets:
#	150
#	13607
#	29460
#	40423
#	56104
#	72369
#	84427
#	94940
#	109207
#	124998
#
# Disc length: 1881 seconds
#
# Revision: 1
# Processed by: cddbd v1.4b41PL1 Copyright (c) Steve Scherf et al.
# Submitted via: audiograbber 1.80
#
DISCID=8a07570a
DTITLE=Blaine Larsen - Sings The Hits
DYEAR=1900
DGENRE=
TTITLE0=It Must Be Love
TTITLE1=The Thunder Rolls
TTITLE2=Chattahoochie
TTITLE3=Nobody's Home
TTITLE4=Adilada
TTITLE5=Like The Rain
TTITLE6=Heartland
TTITLE7=Where Are You Now
TTITLE8=Unanswered Prayers
TTITLE9=State of Mind
EXTD=White River High School's Own Blaine Larsen
EXTT0=
EXTT1=Garth Brooks
EXTT2=Alan Jackson
EXTT3=
EXTT4=
EXTT5=
EXTT6=
EXTT7=
EXTT8=
EXTT9=
PLAYORDER=
